# Blender 4.0.2
# www.blender.org
mtllib Spathula.mtl
o Spathula
v 0.151969 -0.000000 -0.037036
v 0.151969 -0.000000 0.055674
v -0.151969 -0.000000 -0.037035
v -0.151969 -0.000000 0.055674
v 0.106378 2.000000 -0.182648
v 0.106378 2.000000 -0.089938
v -0.106378 2.000000 -0.089938
v -0.106378 2.000000 -0.182647
v 0.899653 2.299999 -0.473377
v 0.899653 2.299999 -0.399209
v -0.899654 2.299999 -0.399209
v -0.899654 2.299999 -0.473376
v 0.899653 4.599999 -0.473377
v 0.899653 4.599999 -0.399209
v -0.899654 4.599999 -0.399209
v -0.899654 4.599999 -0.473376
v 0.132751 -3.000000 -0.123432
v 0.132751 -2.932751 -0.190681
v 0.200000 -2.932751 -0.123432
v 0.132751 -2.980303 -0.170984
v 0.171577 -2.971577 -0.162258
v 0.180303 -2.932751 -0.170984
v 0.180303 -2.980303 -0.123432
v 0.132751 -3.000000 0.142070
v 0.200000 -2.932751 0.142070
v 0.132751 -2.932751 0.209319
v 0.180303 -2.980303 0.142070
v 0.171577 -2.971577 0.180896
v 0.180303 -2.932751 0.189622
v 0.132751 -2.980303 0.189622
v -0.132751 -3.000000 -0.123432
v -0.200000 -2.932751 -0.123432
v -0.132751 -2.932751 -0.190681
v -0.180303 -2.980303 -0.123432
v -0.171577 -2.971577 -0.162258
v -0.180303 -2.932751 -0.170984
v -0.132751 -2.980303 -0.170984
v -0.132751 -3.000000 0.142071
v -0.132751 -2.932751 0.209319
v -0.200000 -2.932751 0.142071
v -0.132751 -2.980303 0.189623
v -0.171577 -2.971577 0.180897
v -0.180303 -2.932751 0.189623
v -0.180303 -2.980303 0.142071
v 0.132751 -0.067249 -0.190681
v 0.174862 -0.000000 -0.110268
v 0.200000 -0.067249 -0.123432
v 0.152165 -0.019892 -0.167284
v 0.180156 -0.028422 -0.159050
v 0.192338 -0.019162 -0.114681
v 0.180303 -0.067249 -0.170984
v 0.174862 -0.000000 0.128906
v 0.132751 -0.067249 0.209319
v 0.200000 -0.067249 0.142070
v 0.152165 -0.019892 0.185923
v 0.180156 -0.028422 0.177688
v 0.180303 -0.067249 0.189622
v 0.192338 -0.019162 0.133319
v -0.174862 -0.000000 0.128906
v -0.200000 -0.067249 0.142071
v -0.132751 -0.067249 0.209319
v -0.192338 -0.019162 0.133319
v -0.180156 -0.028422 0.177688
v -0.180303 -0.067249 0.189623
v -0.152165 -0.019892 0.185923
v -0.174862 -0.000000 -0.110268
v -0.132751 -0.067249 -0.190681
v -0.200000 -0.067249 -0.123432
v -0.152165 -0.019892 -0.167284
v -0.180156 -0.028422 -0.159050
v -0.180303 -0.067249 -0.170984
v -0.192338 -0.019162 -0.114681
v 0.156314 -1.977584 -0.226180
v 0.157791 -1.022416 -0.228406
v 0.214313 -1.022416 -0.204994
v 0.212307 -1.977584 -0.202988
v 0.237725 -1.022416 -0.148472
v 0.235500 -1.977584 -0.146995
v 0.157792 -1.022416 0.247044
v 0.156315 -1.977584 0.244819
v 0.212307 -1.977584 0.221626
v 0.214313 -1.022416 0.223632
v 0.235500 -1.977584 0.165634
v 0.237725 -1.022416 0.167111
v -0.237725 -1.022416 0.167111
v -0.235500 -1.977584 0.165634
v -0.212307 -1.977584 0.221626
v -0.214313 -1.022416 0.223632
v -0.156314 -1.977584 0.244819
v -0.157791 -1.022416 0.247044
v -0.157792 -1.022416 -0.228406
v -0.156315 -1.977584 -0.226180
v -0.212307 -1.977584 -0.202988
v -0.214313 -1.022416 -0.204994
v -0.235500 -1.977584 -0.146995
v -0.237725 -1.022416 -0.148472
vn -0.1962 0.0206 -0.9803
vn -0.1656 0.2174 -0.9619
vn 0.1656 0.2174 -0.9619
vn 0.1962 0.0206 -0.9803
vn -0.9803 0.0206 0.1962
vn -0.9763 0.1029 0.1904
vn -0.9763 0.1029 -0.1904
vn -0.9803 0.0206 -0.1962
vn -0.0000 1.0000 -0.0000
vn -0.0000 0.9894 0.1454
vn -0.0000 0.9894 -0.1454
vn 0.1962 0.0206 0.9803
vn 0.1656 0.2174 0.9619
vn -0.1656 0.2174 0.9619
vn -0.1962 0.0206 0.9803
vn 0.9803 0.0206 -0.1962
vn 0.9763 0.1029 -0.1904
vn 0.9763 0.1029 0.1904
vn 0.9803 0.0206 0.1962
vn -0.0000 -0.0726 -0.9974
vn -0.0000 0.7178 0.6963
vn -0.0000 0.0726 0.9974
vn -0.9997 0.0228 -0.0000
vn 0.9997 0.0228 -0.0000
vn -1.0000 -0.0000 -0.0000
vn -0.3537 -0.9353 -0.0000
vn 0.3537 -0.9353 -0.0000
vn -0.0000 -0.6959 -0.7181
vn 1.0000 -0.0000 -0.0000
vn -0.0000 -0.0000 -1.0000
vn -0.0000 -0.0000 1.0000
vn 0.1794 -0.9673 -0.1794
vn 0.1585 -0.9194 -0.3600
vn 0.3251 -0.8881 -0.3251
vn 0.3600 -0.9194 -0.1585
vn 0.1776 -0.1996 -0.9636
vn 0.3587 -0.1801 -0.9159
vn 0.3251 -0.3251 -0.8881
vn 0.1585 -0.3600 -0.9194
vn 0.9636 -0.1996 -0.1776
vn 0.9194 -0.3600 -0.1585
vn 0.8881 -0.3251 -0.3251
vn 0.9159 -0.1801 -0.3587
vn 0.1794 -0.9673 0.1794
vn 0.3600 -0.9194 0.1585
vn 0.3251 -0.8881 0.3251
vn 0.1585 -0.9194 0.3600
vn 0.9636 -0.1996 0.1776
vn 0.9159 -0.1801 0.3587
vn 0.8881 -0.3251 0.3251
vn 0.9194 -0.3600 0.1585
vn 0.1776 -0.1996 0.9636
vn 0.1585 -0.3600 0.9194
vn 0.3251 -0.3251 0.8881
vn 0.3587 -0.1801 0.9159
vn -0.1794 -0.9673 -0.1794
vn -0.3600 -0.9194 -0.1585
vn -0.3251 -0.8881 -0.3251
vn -0.1585 -0.9194 -0.3600
vn -0.9636 -0.1996 -0.1776
vn -0.9159 -0.1801 -0.3587
vn -0.8881 -0.3251 -0.3251
vn -0.9194 -0.3600 -0.1585
vn -0.1776 -0.1996 -0.9636
vn -0.1585 -0.3600 -0.9194
vn -0.3251 -0.3251 -0.8881
vn -0.3587 -0.1801 -0.9159
vn -0.1794 -0.9673 0.1794
vn -0.1585 -0.9194 0.3600
vn -0.3251 -0.8881 0.3251
vn -0.3600 -0.9194 0.1585
vn -0.1776 -0.1996 0.9636
vn -0.3587 -0.1801 0.9159
vn -0.3251 -0.3251 0.8881
vn -0.1585 -0.3600 0.9194
vn -0.9636 -0.1996 0.1776
vn -0.9194 -0.3600 0.1585
vn -0.8881 -0.3251 0.3251
vn -0.9159 -0.1801 0.3587
vn 0.2175 0.3554 -0.9091
vn 0.3606 0.2837 -0.8886
vn 0.3738 0.1696 -0.9119
vn 0.6499 0.7376 -0.1830
vn 0.6264 0.7472 -0.2222
vn 0.5020 0.7699 -0.3941
vn 0.9265 0.0993 -0.3630
vn 0.9268 0.1637 -0.3379
vn 0.9764 0.1623 -0.1427
vn 0.6499 0.7376 0.1830
vn 0.5020 0.7699 0.3941
vn 0.6264 0.7472 0.2222
vn 0.3738 0.1696 0.9119
vn 0.3606 0.2837 0.8886
vn 0.2175 0.3554 0.9091
vn 0.9764 0.1623 0.1427
vn 0.9268 0.1637 0.3379
vn 0.9265 0.0993 0.3630
vn -0.6499 0.7376 0.1830
vn -0.6264 0.7472 0.2222
vn -0.5020 0.7699 0.3941
vn -0.9265 0.0993 0.3630
vn -0.9268 0.1637 0.3379
vn -0.9764 0.1623 0.1427
vn -0.2175 0.3554 0.9091
vn -0.3606 0.2837 0.8886
vn -0.3738 0.1696 0.9119
vn -0.6499 0.7376 -0.1830
vn -0.5020 0.7699 -0.3941
vn -0.6264 0.7472 -0.2222
vn -0.3738 0.1696 -0.9119
vn -0.3606 0.2837 -0.8886
vn -0.2175 0.3554 -0.9091
vn -0.9764 0.1623 -0.1427
vn -0.9268 0.1637 -0.3379
vn -0.9265 0.0993 -0.3630
vn 0.3826 0.0217 -0.9237
vn 0.9237 0.0217 -0.3826
vn 0.1960 -0.0219 0.9804
vn 0.3826 -0.0231 0.9236
vn 0.9236 -0.0231 0.3826
vn 0.9804 -0.0219 0.1960
vn -0.0000 0.9442 0.3294
vn -0.9804 -0.0219 0.1960
vn -0.9236 -0.0231 0.3826
vn -0.3826 -0.0231 0.9236
vn -0.1960 -0.0219 0.9804
vn -0.1960 -0.0219 -0.9804
vn -0.3826 -0.0231 -0.9236
vn -0.9236 -0.0231 -0.3826
vn -0.9804 -0.0219 -0.1960
vn -0.0000 0.9442 -0.3294
vn -0.9237 0.0217 -0.3826
vn -0.3826 0.0217 -0.9237
vn -0.3826 0.0217 0.9237
vn -0.9237 0.0217 0.3826
vn 0.9237 0.0217 0.3826
vn 0.3826 0.0217 0.9237
vn 0.9236 -0.0231 -0.3826
vn 0.9804 -0.0219 -0.1960
vn 0.1960 -0.0219 -0.9804
vn 0.3826 -0.0231 -0.9236
vt 0.753361 0.352419
vt 0.764257 0.526982
vt 0.714704 0.531214
vt 0.696317 0.354734
vt 0.831097 0.350861
vt 0.833309 0.524819
vt 0.783179 0.525970
vt 0.775486 0.351830
vt 0.718870 0.603448
vt 0.734922 0.603839
vt 0.747542 0.608213
vt 0.706254 0.607255
vt 0.908722 0.351221
vt 0.902389 0.525525
vt 0.852225 0.524740
vt 0.853025 0.350790
vt 0.988163 0.353462
vt 0.970986 0.530269
vt 0.921331 0.526387
vt 0.930847 0.351660
vt 0.492439 0.000501
vt 0.547799 0.000501
vt 0.539495 0.365752
vt 0.500743 0.365752
vt 0.719600 0.551419
vt 0.706980 0.547044
vt 0.735652 0.551810
vt 0.748268 0.548003
vt 0.158500 0.365752
vt 0.197252 0.365752
vt 0.341742 0.444233
vt 0.014010 0.444233
vt 0.150196 0.000501
vt 0.205556 0.000501
vt 0.133386 0.002109
vt 0.141690 0.367361
vt 0.222366 0.002109
vt 0.214062 0.367361
vt 0.000501 0.444233
vt 0.014010 0.863163
vt 0.000501 0.863163
vt 0.145844 0.354573
vt 0.003885 0.435289
vt 0.209908 0.354573
vt 0.351867 0.435289
vt 0.683986 0.441844
vt 0.356253 0.441845
vt 0.341743 0.863163
vt 0.341743 0.876673
vt 0.014010 0.876673
vt 0.355252 0.444233
vt 0.355252 0.863163
vt 0.683986 0.860775
vt 0.356253 0.860775
vt 0.704041 0.688465
vt 0.703509 0.697564
vt 0.696386 0.696080
vt 0.694910 0.689002
vt 0.700712 0.707811
vt 0.690656 0.701711
vt 0.684987 0.691653
vt 0.704331 0.642186
vt 0.695250 0.641672
vt 0.696728 0.634547
vt 0.703808 0.633074
vt 0.684987 0.638896
vt 0.691089 0.628809
vt 0.701176 0.623139
vt 0.750324 0.689058
vt 0.759405 0.689571
vt 0.757927 0.696697
vt 0.750847 0.698170
vt 0.769668 0.692347
vt 0.763566 0.702435
vt 0.753480 0.708105
vt 0.750614 0.642779
vt 0.751146 0.633680
vt 0.758269 0.635164
vt 0.759746 0.642242
vt 0.753943 0.623433
vt 0.764000 0.629533
vt 0.769668 0.639591
vt 0.684987 0.603344
vt 0.695488 0.604657
vt 0.696961 0.609881
vt 0.689761 0.614026
vt 0.704992 0.611808
vt 0.700065 0.621307
vt 0.758472 0.605783
vt 0.756804 0.611040
vt 0.748708 0.612783
vt 0.769535 0.604937
vt 0.763892 0.615513
vt 0.753354 0.622137
vt 0.749530 0.543450
vt 0.757561 0.545376
vt 0.759034 0.550600
vt 0.754456 0.533951
vt 0.764761 0.541232
vt 0.769535 0.551913
vt 0.696050 0.549475
vt 0.697717 0.544217
vt 0.705814 0.542474
vt 0.684987 0.550321
vt 0.690629 0.539744
vt 0.701167 0.533121
vt 0.705150 0.532119
vt 0.684987 0.355274
vt 0.999499 0.353914
vt 0.980558 0.531108
vt 0.907977 0.180311
vt 0.900623 0.006220
vt 0.910076 0.005902
vt 0.918912 0.180114
vt 0.919520 0.005252
vt 0.929874 0.179710
vt 0.830790 0.181258
vt 0.831798 0.007356
vt 0.841243 0.007497
vt 0.841652 0.181334
vt 0.850687 0.007309
vt 0.852514 0.181209
vt 0.753332 0.180363
vt 0.762805 0.005161
vt 0.772290 0.005762
vt 0.764319 0.180709
vt 0.781783 0.006030
vt 0.775278 0.180849
vt 0.773713 0.526300
vt 0.764447 0.352027
vt 0.842766 0.524606
vt 0.842061 0.350731
vt 0.911863 0.525780
vt 0.919761 0.351343
vt 0.978516 0.000501
vt 0.997930 0.176697
vt 0.986705 0.177254
vt 0.969000 0.001377
vt 0.713125 0.001326
vt 0.696328 0.178399
vt 0.685060 0.177919
vt 0.703545 0.000501
s 1
usemtl Spathula_MAT
f 91/1/1 67/2/2 45/3/3 74/4/4
f 85/5/5 60/6/6 68/7/7 96/8/8
f 1/9/9 2/10/9 52/11/10 46/12/11
f 79/13/12 53/14/13 61/15/14 90/16/15
f 77/17/16 47/18/17 54/19/18 84/20/19
f 1/21/20 3/22/20 8/23/20 5/24/20
f 3/25/9 1/9/9 46/12/11 66/26/11
f 4/27/9 3/25/9 66/26/11 59/28/10
f 2/10/9 4/27/9 59/28/10 52/11/10
f 7/29/21 6/30/21 10/31/21 11/32/21
f 4/33/22 2/34/22 6/30/22 7/29/22
f 3/35/23 4/33/23 7/29/23 8/36/23
f 2/34/24 1/37/24 5/38/24 6/30/24
f 12/39/25 11/32/25 15/40/25 16/41/25
f 8/42/26 7/29/26 11/32/26 12/43/26
f 6/30/27 5/44/27 9/45/27 10/31/27
f 5/24/28 8/23/28 12/46/28 9/47/28
f 15/40/9 14/48/9 13/49/9 16/50/9
f 10/31/29 9/51/29 13/52/29 14/48/29
f 9/47/30 12/46/30 16/53/30 13/54/30
f 11/32/31 10/31/31 14/48/31 15/40/31
f 17/55/32 20/56/33 21/57/34 23/58/35
f 18/59/36 22/60/37 21/57/38 20/56/39
f 19/61/40 23/58/41 21/57/42 22/60/43
f 24/62/44 27/63/45 28/64/46 30/65/47
f 25/66/48 29/67/49 28/64/50 27/63/51
f 26/68/52 30/65/53 28/64/54 29/67/55
f 31/69/56 34/70/57 35/71/58 37/72/59
f 32/73/60 36/74/61 35/71/62 34/70/63
f 33/75/64 37/72/65 35/71/66 36/74/67
f 38/76/68 41/77/69 42/78/70 44/79/71
f 39/80/72 43/81/73 42/78/74 41/77/75
f 40/82/76 44/79/77 42/78/78 43/81/79
f 45/83/3 48/84/80 49/85/81 51/86/82
f 46/12/83 50/87/84 49/85/85 48/84/85
f 47/88/17 51/86/86 49/85/87 50/87/88
f 52/11/89 55/89/90 56/90/90 58/91/91
f 53/92/13 57/93/92 56/90/93 55/89/94
f 54/94/18 58/91/95 56/90/96 57/93/97
f 59/28/98 62/95/99 63/96/100 65/97/100
f 60/98/6 64/99/101 63/96/102 62/95/103
f 61/100/14 65/97/104 63/96/105 64/99/106
f 66/26/107 69/101/108 70/102/108 72/103/109
f 67/104/2 71/105/110 70/102/111 69/101/112
f 68/106/7 72/103/113 70/102/114 71/105/115
f 24/62/44 17/55/32 23/58/35 27/63/45
f 27/63/51 23/58/41 19/61/40 25/66/48
f 74/4/4 45/3/3 51/107/82 75/108/116
f 75/109/117 51/110/86 47/18/17 77/17/16
f 46/12/83 52/11/89 58/91/91 50/87/84
f 50/87/88 58/91/95 54/94/18 47/88/17
f 80/111/118 26/112/52 29/113/55 81/114/119
f 81/114/120 29/113/49 25/115/48 83/116/121
f 38/76/68 24/62/44 30/65/47 41/77/69
f 41/77/75 30/65/53 26/68/52 39/80/72
f 52/11/10 59/28/10 65/97/122 55/89/122
f 55/89/94 65/97/104 61/100/14 53/92/13
f 86/117/123 40/118/76 43/119/79 87/120/124
f 87/120/125 43/119/73 39/121/72 89/122/126
f 31/69/56 38/76/68 44/79/71 34/70/57
f 34/70/63 44/79/77 40/82/76 32/73/60
f 59/28/98 66/26/107 72/103/109 62/95/99
f 62/95/103 72/103/113 68/106/7 60/98/6
f 92/123/127 33/124/64 36/125/67 93/126/128
f 93/126/129 36/125/61 32/127/60 95/128/130
f 17/55/32 31/69/56 37/72/59 20/56/33
f 20/56/39 37/72/65 33/75/64 18/59/36
f 66/26/11 46/12/11 48/84/131 69/101/131
f 69/101/112 48/84/80 45/83/3 67/104/2
f 24/62/44 38/76/68 31/69/56 17/55/32
f 71/129/115 94/130/132 96/8/8 68/7/7
f 94/130/132 93/126/129 95/128/130 96/8/8
f 67/2/2 91/1/1 94/130/133 71/129/110
f 91/1/1 92/123/127 93/126/128 94/130/133
f 64/131/106 88/132/134 90/16/15 61/15/14
f 88/132/134 87/120/125 89/122/126 90/16/15
f 60/6/6 85/5/5 88/132/135 64/131/101
f 85/5/5 86/117/123 87/120/124 88/132/135
f 57/133/97 82/134/136 84/20/19 54/19/18
f 82/134/136 81/114/120 83/116/121 84/20/19
f 53/14/13 79/13/12 82/134/137 57/133/92
f 79/13/12 80/111/118 81/114/119 82/134/137
f 22/135/43 76/136/138 78/137/139 19/138/40
f 76/136/138 75/109/117 77/17/16 78/137/139
f 18/139/36 73/140/140 76/141/141 22/142/37
f 73/140/140 74/4/4 75/108/116 76/141/141
f 19/138/40 78/137/139 83/116/121 25/115/48
f 78/137/139 77/17/16 84/20/19 83/116/121
f 26/112/52 80/111/118 89/122/126 39/121/72
f 80/111/118 79/13/12 90/16/15 89/122/126
f 40/118/76 86/117/123 95/128/130 32/127/60
f 86/117/123 85/5/5 96/8/8 95/128/130
f 33/124/64 92/123/127 73/140/140 18/139/36
f 92/123/127 91/1/1 74/4/4 73/140/140
